<?xml version="1.0" encoding="UTF-8" standalone="no"?>
<svg width="39px" height="43px" viewBox="0 0 39 43" version="1.1" xmlns="http://www.w3.org/2000/svg" xmlns:xlink="http://www.w3.org/1999/xlink">
    <!-- Generator: Sketch 3.6.1 (26313) - http://www.bohemiancoding.com/sketch -->
    <title>Facebook</title>
    <desc>Created with Sketch.</desc>
    <defs></defs>
    <g id="Home" stroke="none" stroke-width="1" fill="none" fill-rule="evenodd">
        <g id="#1-Service" transform="translate(-655.000000, -2867.000000)">
            <g id="#7" transform="translate(-18.000000, 2299.000000)">
                <g id="Social" transform="translate(673.000000, 568.000000)">
                    <g id="Facebook">
                        <ellipse id="Background" fill="#EEEEEE" cx="19.4166667" cy="21.5" rx="19.4166667" ry="21.5"></ellipse>
                        <path d="M23.2330231,15.1833029 C22.8019837,15.0439245 22.3062884,14.9510057 21.8536971,14.9510057 C21.2933459,14.9510057 20.0864356,15.3459109 20.0864356,16.1124917 L20.0864356,17.9476396 L22.9528475,17.9476396 L22.9528475,21.0371925 L20.0864356,21.0371925 L20.0864356,29.5625 L17.1984717,29.5625 L17.1984717,21.0371925 L15.7760417,21.0371925 L15.7760417,17.9476396 L17.1984717,17.9476396 L17.1984717,16.3912483 C17.1984717,14.0450465 18.1898622,12.09375 20.5821309,12.09375 C21.4011057,12.09375 22.8666396,12.1402094 23.6640625,12.4421958 L23.2330231,15.1833029 Z" id="Facebook-Icon" fill="#656B6F"></path>
                    </g>
                </g>
            </g>
        </g>
    </g>
</svg>