<?xml version="1.0" encoding="UTF-8" standalone="no"?>
<svg width="40px" height="40px" viewBox="0 0 40 40" version="1.1" xmlns="http://www.w3.org/2000/svg" xmlns:xlink="http://www.w3.org/1999/xlink" xmlns:sketch="http://www.bohemiancoding.com/sketch/ns">
    <!-- Generator: Sketch 3.5.2 (25235) - http://www.bohemiancoding.com/sketch -->
    <title>Icon 25x25</title>
    <desc>Created with Sketch.</desc>
    <defs></defs>
    <g id="Home" stroke="none" stroke-width="1" fill="none" fill-rule="evenodd" sketch:type="MSPage">
        <g id="#1-Service" sketch:type="MSArtboardGroup" transform="translate(-120.000000, -1088.000000)" fill="#2E71F2">
            <g id="#3" sketch:type="MSLayerGroup" transform="translate(29.000000, 950.000000)">
                <path d="M129.4,152.4 L124.6,152.4 L124.6,145.3072 C124.6,144.8704 124.4224,144.4544 124.1072,144.152 L118.1616,138.4448 C117.8624,138.16 117.4656,138 117.0528,138 L99,138 C98.1152,138 97.4,138.7168 97.4,139.6 L97.4,157.2 L92.6,157.2 C91.7152,157.2 91,157.9168 91,158.8 L91,176.4 C91,177.2848 91.7152,178 92.6,178 L123,178 C123.8848,178 124.6,177.2848 124.6,176.4 L124.6,170 L129.4,170 C130.2848,170 131,169.2848 131,168.4 L131,154 C131,153.1168 130.2848,152.4 129.4,152.4 L129.4,152.4 Z M125.8128,155.6 L120.1664,160.3472 L114.52,155.6 L125.8128,155.6 L125.8128,155.6 Z M121.4,145.9888 L121.4,146 L116.6,146 L116.6,141.3824 L121.4,145.9888 L121.4,145.9888 Z M99,174.8 L94.2,174.8 L94.2,160.4 L102.2,160.4 L102.2,174.8 L99,174.8 L99,174.8 Z M121.4,174.8 L105.4,174.8 L105.4,158.8 C105.4,157.9168 104.6848,157.2 103.8,157.2 L100.6,157.2 L100.6,141.2 L113.4,141.2 L113.4,147.6 C113.4,148.4832 114.1152,149.2 115,149.2 L121.4,149.2 L121.4,152.4 L110.2,152.4 C110.1408,152.4 110.0912,152.4272 110.0352,152.4336 C110.016,152.4352 109.9984,152.4432 109.9792,152.4448 C109.8048,152.4704 109.6416,152.5088 109.4896,152.584 C109.4032,152.624 109.3296,152.6896 109.2496,152.7456 C109.176,152.8016 109.0992,152.848 109.0368,152.9168 C109.0048,152.9472 108.9648,152.9616 108.936,152.9968 C108.8432,153.1072 108.7952,153.2352 108.736,153.36 C108.7328,153.368 108.728,153.376 108.7248,153.384 C108.5952,153.672 108.5504,153.976 108.6,154.28 L108.6,168.4 C108.6,169.2848 109.3152,170 110.2,170 L121.4,170 L121.4,174.8 L121.4,174.8 Z M111.8,166.8 L111.8,157.4944 L119.136,163.6624 C119.4336,163.912 119.8,164.0368 120.1664,164.0368 C120.5312,164.0368 120.8976,163.912 121.1952,163.6624 L127.8,158.1104 L127.8,166.8 L111.8,166.8 L111.8,166.8 Z" id="Icon-25x25" sketch:type="MSShapeGroup"></path>
            </g>
        </g>
    </g>
</svg>