<?xml version="1.0" encoding="UTF-8" standalone="no"?>
<svg width="40px" height="40px" viewBox="0 0 40 40" version="1.1" xmlns="http://www.w3.org/2000/svg" xmlns:xlink="http://www.w3.org/1999/xlink" xmlns:sketch="http://www.bohemiancoding.com/sketch/ns">
    <!-- Generator: Sketch 3.5.2 (25235) - http://www.bohemiancoding.com/sketch -->
    <title>Icon 25x25</title>
    <desc>Created with Sketch.</desc>
    <defs></defs>
    <g id="Home" stroke="none" stroke-width="1" fill="none" fill-rule="evenodd" sketch:type="MSPage">
        <g id="#1-Service" sketch:type="MSArtboardGroup" transform="translate(-121.000000, -1207.000000)" fill="#2E71F2">
            <g id="#3" sketch:type="MSLayerGroup" transform="translate(29.000000, 950.000000)">
                <path d="M130.707943,288.927772 L121.591438,279.812867 C122.697196,277.66856 123.334087,275.242613 123.334087,272.666244 C123.334087,264.028207 116.304281,257 107.666244,257 C99.0266063,257 92,264.028207 92,272.666244 C92,281.305881 99.0266063,288.334087 107.666244,288.334087 C110.241012,288.334087 112.66536,287.698796 114.811267,286.593038 L123.927772,295.707943 C124.791896,296.572067 125.93446,297.002529 127.096226,297.002529 C128.333203,297.002529 129.589383,296.516059 130.554321,295.554321 C132.420189,293.685254 132.488999,290.712028 130.707943,288.927772 L130.707943,288.927772 Z M95.2004583,272.666244 C95.2004583,265.791659 100.791659,260.200458 107.666244,260.200458 C114.540828,260.200458 120.133629,265.791659 120.133629,272.666244 C120.133629,279.540828 114.540828,285.133629 107.666244,285.133629 C100.791659,285.133629 95.2004583,279.540828 95.2004583,272.666244 L95.2004583,272.666244 Z M128.289997,293.289997 C127.669108,293.912486 126.726573,293.981296 126.190497,293.445219 L117.552459,284.807182 C118.378178,284.133486 119.131886,283.378178 119.805582,282.552459 L128.443619,291.190497 C128.979696,291.726573 128.910886,292.669108 128.289997,293.289997 Z M107.666244,265.65564 C103.80009,265.65564 100.65564,268.80009 100.65564,272.666244 C100.65564,273.55117 101.370942,274.266473 102.255869,274.266473 C103.139195,274.266473 103.856098,273.55117 103.856098,272.666244 C103.856098,270.565143 105.565143,268.856098 107.666244,268.856098 C108.54957,268.856098 109.266473,268.139195 109.266473,267.255869 C109.266473,266.372542 108.54957,265.65564 107.666244,265.65564 Z" id="Icon-25x25" sketch:type="MSShapeGroup"></path>
            </g>
        </g>
    </g>
</svg>