<?xml version="1.0" encoding="UTF-8" standalone="no"?>
<svg width="35px" height="35px" viewBox="0 0 35 35" version="1.1" xmlns="http://www.w3.org/2000/svg" xmlns:xlink="http://www.w3.org/1999/xlink" xmlns:sketch="http://www.bohemiancoding.com/sketch/ns">
    <!-- Generator: Sketch 3.5.2 (25235) - http://www.bohemiancoding.com/sketch -->
    <title>Instagram</title>
    <desc>Created with Sketch.</desc>
    <defs></defs>
    <g id="Home" stroke="none" stroke-width="1" fill="none" fill-rule="evenodd" sketch:type="MSPage">
        <g id="#1-Service" sketch:type="MSArtboardGroup" transform="translate(-308.000000, -3791.000000)" fill="#FFFFFF" opacity="0.300000012">
            <g id="#9" sketch:type="MSLayerGroup" transform="translate(-1.000000, 3760.000000)">
                <g id="Social" transform="translate(111.000000, 31.142857)" sketch:type="MSShapeGroup">
                    <path d="M229.139083,0 L201.319633,0 C199.699083,0 198.348624,1.39226891 198.348624,3.0629916 L198.348624,11.5906387 L209.591193,11.5906387 C211.279266,10.3375966 213.068624,9.25858824 215.229358,9.25858824 C217.322569,9.25858824 219.213211,10.3375966 220.867523,11.5906387 L232.110092,11.5906387 L232.110092,3.0629916 C232.110092,1.39226891 230.759633,0 229.139083,0 L229.139083,0 Z M229.848073,8.07515966 C229.848073,8.73648739 229.341651,9.29339496 228.700183,9.29339496 L224.277431,9.29339496 C223.635963,9.29339496 223.09578,8.73648739 223.09578,8.07515966 L223.09578,3.51547899 C223.09578,2.85415126 223.635963,2.33205042 224.277431,2.33205042 L228.700183,2.33205042 C229.341651,2.33205042 229.848073,2.85415126 229.848073,3.51547899 L229.848073,8.07515966 Z M220.867523,18.5519832 C220.867523,15.3497647 218.335413,12.7740672 215.229358,12.7740672 C212.123303,12.7740672 209.591193,15.3497647 209.591193,18.5519832 C209.591193,21.7542017 212.123303,24.3647059 215.229358,24.3647059 C218.335413,24.3647059 220.867523,21.7542017 220.867523,18.5519832 L220.867523,18.5519832 Z M223.838532,16.2547395 C224.041101,16.9508739 224.108624,17.6818151 224.108624,18.4127563 C224.108624,23.4945378 220.124771,27.6017311 215.229358,27.6017311 C210.333945,27.6017311 206.350092,23.4945378 206.350092,18.4127563 C206.350092,17.6818151 206.417615,16.9508739 206.620183,16.2547395 L198.348624,16.2547395 L198.348624,31.7437311 C198.348624,33.4144538 199.699083,34.8067227 201.319633,34.8067227 L229.139083,34.8067227 C230.759633,34.8067227 232.110092,33.4144538 232.110092,31.7437311 L232.110092,16.2547395 L223.838532,16.2547395 Z" id="Instagram"></path>
                </g>
            </g>
        </g>
    </g>
</svg>