<?xml version="1.0" encoding="UTF-8" standalone="no"?>
<svg width="40px" height="43px" viewBox="0 0 40 43" version="1.1" xmlns="http://www.w3.org/2000/svg" xmlns:xlink="http://www.w3.org/1999/xlink">
    <!-- Generator: Sketch 3.6.1 (26313) - http://www.bohemiancoding.com/sketch -->
    <title>Twitter</title>
    <desc>Created with Sketch.</desc>
    <defs></defs>
    <g id="Home" stroke="none" stroke-width="1" fill="none" fill-rule="evenodd">
        <g id="#1-Service" transform="translate(-719.000000, -2867.000000)">
            <g id="#7" transform="translate(-18.000000, 2299.000000)">
                <g id="Social" transform="translate(673.000000, 568.000000)">
                    <g id="Twitter" transform="translate(64.317708, 0.000000)">
                        <ellipse id="Background" fill="#EEEEEE" cx="19.4166667" cy="21.5" rx="19.4166667" ry="21.5"></ellipse>
                        <path d="M24.6817175,18.0157796 C24.6817175,18.0157796 24.6817175,17.8807239 24.6817175,18.0157796 C24.0606135,17.3405012 23.3152887,17.0703898 22.5699639,17.2054455 L22.5699639,17.2054455 L22.5699639,17.2054455 C23.3152887,17.0703898 23.6879511,16.8002784 23.8121719,16.6652227 C23.8121719,16.5301671 23.8121719,16.3951114 23.6879511,16.3951114 C23.3152887,16.3951114 22.9426263,16.5301671 22.6941847,16.6652227 C23.0668471,16.3951114 23.1910679,16.2600557 23.1910679,16.125 C22.8184055,16.125 22.4457431,16.3951114 21.9488599,16.8002784 C22.0730807,16.5301671 22.1973015,16.3951114 22.0730807,16.2600557 C21.8246391,16.3951114 21.7004183,16.5301671 21.5761975,16.8002784 C21.2035351,17.2054455 20.9550935,17.4755568 20.8308727,17.8807239 L20.8308727,17.8807239 C20.3339895,18.8261137 19.9613271,19.6364478 19.7128855,20.5818376 L19.5886647,20.5818376 C19.3402231,20.1766705 18.9675607,19.7715035 18.4706775,19.5013921 C17.9737943,19.096225 17.3526903,18.8261137 16.6073655,18.4209466 C15.8620407,18.0157796 15.1167159,17.6106125 14.2471703,17.3405012 C14.2471703,18.2858909 14.6198327,19.096225 15.4893783,19.6364478 L15.4893783,19.6364478 C15.2409367,19.6364478 14.8682743,19.6364478 14.6198327,19.7715035 C14.6198327,20.5818376 15.2409367,21.257116 16.3589239,21.5272274 L16.3589239,21.5272274 C15.9862615,21.5272274 15.6135991,21.662283 15.2409367,21.9323944 C15.6135991,22.7427285 16.2347031,23.0128399 17.2284695,23.0128399 C17.1042487,23.1478956 16.8558071,23.2829512 16.8558071,23.2829512 C16.7315863,23.4180069 16.6073655,23.6881183 16.7315863,23.9582297 C16.9800279,24.3633967 17.2284695,24.4984524 17.8495735,24.4984524 L17.8495735,24.4984524 L17.8495735,24.4984524 C16.9800279,25.4438422 15.8620407,25.9840649 14.6198327,25.8490092 L14.6198327,25.8490092 C13.8745079,25.8490092 13.0049623,25.4438422 12.1354167,24.6335081 C13.0049623,25.9840649 14.2471703,27.0645104 15.7378199,27.7397888 C17.4769111,28.2800116 19.2160023,28.4150672 20.8308727,27.8748445 L20.8308727,27.8748445 C22.4457431,27.3346218 23.9363927,26.2541763 25.0543799,24.7685638 C25.5512631,23.9582297 25.9239255,23.1478956 26.0481463,22.3375615 C26.9176919,22.3375615 27.5387959,22.0674501 27.9114583,21.5272274 L27.9114583,21.5272274 C27.6630167,21.662283 27.0419127,21.662283 26.1723671,21.3921717 L26.1723671,21.3921717 L26.1723671,21.3921717 C27.0419127,21.257116 27.6630167,20.9870046 27.7872375,20.4467819 C27.1661335,20.7168933 26.5450295,20.7168933 25.9239255,20.4467819 C25.7997047,19.5013921 25.4270423,18.691058 24.6817175,18.0157796 L24.6817175,18.0157796 Z" id="Twitter-Icon" fill="#656B6F"></path>
                    </g>
                </g>
            </g>
        </g>
    </g>
</svg>