<?xml version="1.0" encoding="UTF-8" standalone="no"?>
<svg width="37px" height="29px" viewBox="0 0 37 29" version="1.1" xmlns="http://www.w3.org/2000/svg" xmlns:xlink="http://www.w3.org/1999/xlink" xmlns:sketch="http://www.bohemiancoding.com/sketch/ns">
    <!-- Generator: Sketch 3.5.2 (25235) - http://www.bohemiancoding.com/sketch -->
    <title>Twitter</title>
    <desc>Created with Sketch.</desc>
    <defs></defs>
    <g id="Home" stroke="none" stroke-width="1" fill="none" fill-rule="evenodd" sketch:type="MSPage">
        <g id="#1-Service" sketch:type="MSArtboardGroup" transform="translate(-202.000000, -3794.000000)" fill="#FFFFFF" opacity="0.300000012">
            <g id="#9" sketch:type="MSLayerGroup" transform="translate(-1.000000, 3760.000000)">
                <g id="Social" transform="translate(111.000000, 31.142857)" sketch:type="MSShapeGroup">
                    <path d="M124.608962,16.6055692 C123.893228,19.2767252 122.580576,21.7879374 120.926783,23.9805241 C116.073364,30.3145512 108.820282,32.8699937 101.537884,30.918681 C98.115555,30.0016707 95.0170418,28.0353407 92.6744355,25.3172433 C93.1406089,25.4875975 93.6465769,25.6686147 94.1241112,25.7965696 C96.989317,26.5642992 100.0078,26.2824568 102.736171,25.0140106 C100.081299,24.2571963 98.2048658,21.7094531 98.0962757,18.7719767 C98.4714993,18.9634044 98.8580837,19.1124328 99.2560289,19.2190619 C99.8131523,19.3683427 100.392997,19.4328248 100.995564,19.4125084 C98.2211821,17.9874635 96.770939,14.6450488 97.7025925,11.4864271 L97.7253142,11.4016285 C98.4644634,12.1450041 99.340006,12.6977091 100.363303,13.0173441 C98.913375,11.2655341 98.4353994,8.91073264 99.0375248,6.66356969 C99.3556289,5.47638927 99.9522946,4.36384922 100.782079,3.49554676 C102.88071,8.55677332 106.934607,12.3696178 111.908986,14.0206026 C111.925933,13.4798222 112.022468,12.9603677 112.158799,12.4515761 C113.158554,8.72043763 116.790586,6.46715395 120.292505,7.40549011 C122.003669,7.86399528 123.470544,9.07502496 124.300832,10.7516899 C125.812961,10.8387596 127.313666,10.6501077 128.751792,10.2174705 C127.865267,11.6158904 126.506856,12.7060952 124.97778,13.1598059 C126.285288,13.3738211 127.581371,13.3121148 128.883104,13.0701483 C127.683871,14.2030048 126.291315,15.1022866 124.807746,15.704521 C124.768014,16.011979 124.688488,16.3087741 124.608962,16.6055692 Z" id="Twitter"></path>
                </g>
            </g>
        </g>
    </g>
</svg>